<?xml version="1.0" encoding="UTF-8"?>
<svg version="1.1" xmlns="http://www.w3.org/2000/svg" width="20" height="20">
<path d="M0 0 C1.32 0 2.64 0 4 0 C4 0.66 4 1.32 4 2 C4.66 2 5.32 2 6 2 C6 2.66 6 3.32 6 4 C6.66 4 7.32 4 8 4 C8 4.66 8 5.32 8 6 C9.32 6 10.64 6 12 6 C12 5.34 12 4.68 12 4 C12.66 4 13.32 4 14 4 C14 3.34 14 2.68 14 2 C14.66 2 15.32 2 16 2 C16 1.34 16 0.68 16 0 C17.32 0 18.64 0 20 0 C20 1.32 20 2.64 20 4 C19.34 4 18.68 4 18 4 C18 4.66 18 5.32 18 6 C17.34 6 16.68 6 16 6 C16 6.66 16 7.32 16 8 C15.34 8 14.68 8 14 8 C14 9.32 14 10.64 14 12 C14.66 12 15.32 12 16 12 C16 12.66 16 13.32 16 14 C16.66 14 17.32 14 18 14 C18 14.66 18 15.32 18 16 C18.66 16 19.32 16 20 16 C20 17.32 20 18.64 20 20 C18.68 20 17.36 20 16 20 C16 19.34 16 18.68 16 18 C15.34 18 14.68 18 14 18 C14 17.34 14 16.68 14 16 C13.34 16 12.68 16 12 16 C12 15.34 12 14.68 12 14 C10.68 14 9.36 14 8 14 C8 14.66 8 15.32 8 16 C7.34 16 6.68 16 6 16 C6 16.66 6 17.32 6 18 C5.34 18 4.68 18 4 18 C4 18.66 4 19.32 4 20 C2.68 20 1.36 20 0 20 C0 18.68 0 17.36 0 16 C0.66 16 1.32 16 2 16 C2 15.34 2 14.68 2 14 C2.66 14 3.32 14 4 14 C4 13.34 4 12.68 4 12 C4.66 12 5.32 12 6 12 C6 10.68 6 9.36 6 8 C5.34 8 4.68 8 4 8 C4 7.34 4 6.68 4 6 C3.34 6 2.68 6 2 6 C2 5.34 2 4.68 2 4 C1.34 4 0.68 4 0 4 C0 2.68 0 1.36 0 0 Z " fill="#FFFFFF" transform="translate(0,0)"/>
</svg>
